<svg xmlns="http://www.w3.org/2000/svg" viewBox="0 0 500 500"><g id="freepik--background-complete--inject-3"><rect x="386.57" y="52.15" width="72.04" height="47.04" style="fill:#dbdbdb"></rect><rect x="386.57" y="101.94" width="72.04" height="47.04" style="fill:#ebebeb"></rect><rect x="393.69" y="110.98" width="7" height="7" style="fill:#fff"></rect><rect x="402.16" y="110.98" width="7" height="7" style="fill:#c7c7c7"></rect><rect x="410.62" y="110.98" width="7" height="7" style="fill:#fff"></rect><rect x="419.08" y="110.98" width="7" height="7" style="fill:#fff"></rect><rect x="427.54" y="110.98" width="7" height="7" style="fill:#fff"></rect><rect x="436.01" y="110.98" width="7" height="7" style="fill:#fff"></rect><rect x="444.47" y="110.98" width="7" height="7" style="fill:#fff"></rect><rect x="393.69" y="119.5" width="7" height="7" style="fill:#fff"></rect><rect x="402.16" y="119.5" width="7" height="7" style="fill:#fff"></rect><rect x="410.62" y="119.5" width="7" height="7" style="fill:#fff"></rect><rect x="419.08" y="119.5" width="7" height="7" style="fill:#fff"></rect><rect x="427.54" y="119.5" width="7" height="7" style="fill:#c7c7c7"></rect><rect x="436.01" y="119.5" width="7" height="7" style="fill:#fff"></rect><rect x="444.47" y="119.5" width="7" height="7" style="fill:#fff"></rect><rect x="393.69" y="128.03" width="7" height="7" style="fill:#fff"></rect><rect x="402.16" y="128.03" width="7" height="7" style="fill:#fff"></rect><rect x="410.62" y="128.03" width="7" height="7" style="fill:#fff"></rect><rect x="419.08" y="128.03" width="7" height="7" style="fill:#fff"></rect><rect x="427.54" y="128.03" width="7" height="7" style="fill:#fff"></rect><rect x="436.01" y="128.03" width="7" height="7" style="fill:#fff"></rect><rect x="444.47" y="128.03" width="7" height="7" style="fill:#fff"></rect><rect x="393.69" y="136.55" width="7" height="7" style="fill:#fff"></rect><rect x="402.16" y="136.55" width="7" height="7" style="fill:#fff"></rect><rect x="410.62" y="136.55" width="7" height="7" style="fill:#c7c7c7"></rect><rect x="419.08" y="136.55" width="7" height="7" style="fill:#fff"></rect><rect x="427.54" y="136.55" width="7" height="7" style="fill:#fff"></rect><rect x="436.01" y="136.55" width="7" height="7" style="fill:#fff"></rect><rect x="444.47" y="136.55" width="7" height="7" style="fill:#fff"></rect><rect x="389.39" y="96.95" width="2.73" height="7.23" style="fill:#c7c7c7"></rect><rect x="395.75" y="96.95" width="2.73" height="7.23" style="fill:#c7c7c7"></rect><rect x="402.12" y="96.95" width="2.73" height="7.23" style="fill:#c7c7c7"></rect><rect x="408.48" y="96.95" width="2.73" height="7.23" style="fill:#c7c7c7"></rect><rect x="414.85" y="96.95" width="2.73" height="7.23" style="fill:#c7c7c7"></rect><rect x="421.22" y="96.95" width="2.73" height="7.23" style="fill:#c7c7c7"></rect><rect x="427.58" y="96.95" width="2.73" height="7.23" style="fill:#c7c7c7"></rect><rect x="433.95" y="96.95" width="2.73" height="7.23" style="fill:#c7c7c7"></rect><rect x="440.31" y="96.95" width="2.73" height="7.23" style="fill:#c7c7c7"></rect><rect x="446.68" y="96.95" width="2.73" height="7.23" style="fill:#c7c7c7"></rect><rect x="453.05" y="96.95" width="2.73" height="7.23" style="fill:#c7c7c7"></rect><path d="M423.73,57a1.15,1.15,0,1,1-1.15-1.15A1.14,1.14,0,0,1,423.73,57Z" style="fill:#263238"></path><path d="M102.21,286.92V472.17H211.34V286.92Zm9.9,66.91h89.32v47H112.11Zm0-58.18h89.32v47H112.11Z" style="fill:#dbdbdb"></path><rect x="52.85" y="286.92" width="49.35" height="185.24" transform="translate(155.06 759.09) rotate(180)" style="fill:#ebebeb"></rect><rect x="180.21" y="295.64" width="21.22" height="47" transform="translate(381.64 638.28) rotate(180)" style="fill:#ebebeb"></rect><path d="M201.12,455.56H111.86V410.25h89.26Zm-88.76-.5h88.26V410.75H112.36Z" style="fill:#ebebeb"></path><rect x="147.68" y="423.11" width="17.63" height="6.44" transform="translate(312.99 852.65) rotate(180)" style="fill:#ebebeb"></rect><rect x="180.21" y="353.84" width="21.22" height="47" transform="translate(381.64 754.67) rotate(180)" style="fill:#ebebeb"></rect><rect x="110.13" y="371.7" width="43.33" height="14.93" transform="translate(510.97 247.37) rotate(90)" style="fill:#a6a6a6"></rect><rect x="127.12" y="381.73" width="9.35" height="14.93" transform="translate(521 257.4) rotate(90)" style="fill:#dbdbdb"></rect><rect x="129.02" y="366.76" width="5.55" height="14.93" transform="translate(506.03 242.43) rotate(90)" style="fill:#dbdbdb"></rect><rect x="137.65" y="306.38" width="37.74" height="36.26" transform="translate(313.04 649.03) rotate(180)" style="fill:#ebebeb"></rect><rect x="123.31" y="306.38" width="14.34" height="36.26" transform="translate(260.96 649.03) rotate(180)" style="fill:#c7c7c7"></rect><polygon points="175.39 324.51 137.65 324.51 167.12 325.45 175.39 324.51" style="fill:#c7c7c7"></polygon><polygon points="137.65 338.26 175.39 338.26 145.92 339.2 137.65 338.26" style="fill:#c7c7c7"></polygon><polygon points="175.39 314.38 151.49 314.38 172.73 315.14 175.39 314.38" style="fill:#c7c7c7"></polygon><polygon points="137.65 332.93 161.55 332.93 140.31 333.69 137.65 332.93" style="fill:#c7c7c7"></polygon><polygon points="166.34 310.34 139.38 310.34 143.87 310.8 166.34 310.34" style="fill:#c7c7c7"></polygon><polygon points="171.72 328.4 144.76 328.4 149.25 328.86 171.72 328.4" style="fill:#c7c7c7"></polygon><polygon points="155.14 317.83 137.65 317.83 134.53 319.05 155.14 317.83" style="fill:#ebebeb"></polygon><polygon points="180.21 317.83 162.72 317.83 159.59 319.05 180.21 317.83" style="fill:#ebebeb"></polygon><polygon points="157.76 334.13 175.25 334.13 178.38 335.35 157.76 334.13" style="fill:#ebebeb"></polygon><polygon points="137.65 329.99 123.61 329.99 120.48 331.21 137.65 329.99" style="fill:#c7c7c7"></polygon><polygon points="132.75 324.51 121.86 324.51 123.31 323.52 132.75 324.51" style="fill:#c7c7c7"></polygon><rect x="112.11" y="354.61" width="12.22" height="46.22" style="fill:#ebebeb"></rect><path d="M118.22,363.73a2.55,2.55,0,1,0-2.54-2.55A2.55,2.55,0,0,0,118.22,363.73Z" style="fill:#fff"></path><path d="M118.22,362.64a1.46,1.46,0,1,0-1.45-1.46A1.46,1.46,0,0,0,118.22,362.64Z" style="fill:#a6a6a6"></path><rect x="112.6" y="381.82" width="11.25" height="12.22" transform="translate(506.15 269.71) rotate(90)" style="fill:#fff"></rect><rect x="139.26" y="391.29" width="46.22" height="9.61" style="fill:#c7c7c7"></rect><path d="M148.38,396.1a2.55,2.55,0,1,0-2.54,2.54A2.55,2.55,0,0,0,148.38,396.1Z" style="fill:#fff"></path><path d="M147.29,396.1a1.46,1.46,0,1,0-1.45,1.45A1.45,1.45,0,0,0,147.29,396.1Z" style="fill:#a6a6a6"></path><rect x="166.96" y="391.29" width="11.25" height="9.61" style="fill:#fff"></rect><path d="M274.61,388.62a2.11,2.11,0,0,1,1,1.95c0,.22,0,.44,0,.66s0,.44,0,.65a2.1,2.1,0,0,1-1,1.95l-2.35,1.36,4.42,7.67L279,401.5a2.08,2.08,0,0,1,2.2.08,11.82,11.82,0,0,0,1.15.66,2.11,2.11,0,0,1,1.16,1.87v2.71h8.85v-2.71a2.1,2.1,0,0,1,1.17-1.87,13,13,0,0,0,1.14-.66,2.1,2.1,0,0,1,2.21-.08l2.35,1.36,4.42-7.67-2.36-1.37a2.06,2.06,0,0,1-1-1.94c0-.22,0-.44,0-.65s0-.44,0-.66a2.09,2.09,0,0,1,1-1.95l2.35-1.36-4.42-7.66L296.92,381a2.1,2.1,0,0,1-2.2-.07,13.24,13.24,0,0,0-1.15-.67,2.1,2.1,0,0,1-1.17-1.87v-2.71h-8.85v2.71a2.1,2.1,0,0,1-1.17,1.87,13.07,13.07,0,0,0-1.14.67A2.12,2.12,0,0,1,279,381l-2.35-1.35-4.42,7.66ZM288,384a7.25,7.25,0,1,1-7.25,7.26A7.26,7.26,0,0,1,288,384Z" style="fill:#dbdbdb"></path><path d="M426.4,196.15a2.11,2.11,0,0,1,1,1.95c0,.22,0,.44,0,.65s0,.44,0,.66a2.1,2.1,0,0,1-1,2l-2.35,1.36,4.43,7.67,2.35-1.36a2.1,2.1,0,0,1,2.21.08,10.59,10.59,0,0,0,1.14.66,2.09,2.09,0,0,1,1.16,1.87v2.71h8.86v-2.71a2.09,2.09,0,0,1,1.16-1.87,13,13,0,0,0,1.14-.66,2.1,2.1,0,0,1,2.21-.08l2.35,1.36,4.43-7.67-2.37-1.37a2.09,2.09,0,0,1-1-1.94c0-.22,0-.44,0-.66s0-.43,0-.65a2.11,2.11,0,0,1,1-1.95l2.36-1.36-4.43-7.67-2.35,1.36a2.08,2.08,0,0,1-2.2-.08,11.82,11.82,0,0,0-1.15-.66,2.09,2.09,0,0,1-1.16-1.87v-2.71h-8.86v2.71a2.11,2.11,0,0,1-1.16,1.87,11.82,11.82,0,0,0-1.15.66,2.1,2.1,0,0,1-2.21.08l-2.34-1.36-4.43,7.67Zm13.36-4.65a7.25,7.25,0,1,1-7.24,7.25A7.26,7.26,0,0,1,439.76,191.5Z" style="fill:#dbdbdb"></path><path d="M51.52,76.81A34.48,34.48,0,1,0,86,42.33,34.48,34.48,0,0,0,51.52,76.81Zm18.38,0A16.11,16.11,0,1,1,86,92.91,16.1,16.1,0,0,1,69.9,76.81Z" style="fill:#ebebeb"></path><polygon points="79.37 43.76 92.63 43.76 91.9 34.37 80.11 34.37 79.37 43.76" style="fill:#ebebeb"></polygon><polygon points="104.61 48.22 113.99 57.6 120.11 50.45 111.77 42.1 104.61 48.22" style="fill:#ebebeb"></polygon><polygon points="119.3 69.23 119.3 82.49 128.69 81.76 128.69 69.96 119.3 69.23" style="fill:#ebebeb"></polygon><polygon points="114.83 94.47 105.45 103.84 112.61 109.96 120.95 101.62 114.83 94.47" style="fill:#ebebeb"></polygon><polygon points="93.83 109.16 80.57 109.16 81.3 118.54 93.09 118.54 93.83 109.16" style="fill:#ebebeb"></polygon><polygon points="68.59 104.69 59.21 95.31 53.09 102.47 61.43 110.81 68.59 104.69" style="fill:#ebebeb"></polygon><polygon points="53.9 83.68 53.9 70.42 44.51 71.16 44.51 82.95 53.9 83.68" style="fill:#ebebeb"></polygon><polygon points="58.37 58.44 67.74 49.07 60.59 42.95 52.25 51.29 58.37 58.44" style="fill:#ebebeb"></polygon><path d="M320.29,354.19a34.48,34.48,0,1,0,34.48-34.48A34.48,34.48,0,0,0,320.29,354.19Zm18.37,0a16.11,16.11,0,1,1,16.11,16.09A16.11,16.11,0,0,1,338.66,354.19Z" style="fill:#ebebeb"></path><polygon points="348.14 321.13 361.4 321.13 360.67 311.75 348.87 311.75 348.14 321.13" style="fill:#ebebeb"></polygon><polygon points="373.38 325.6 382.75 334.98 388.87 327.82 380.54 319.48 373.38 325.6" style="fill:#ebebeb"></polygon><polygon points="388.07 346.61 388.07 359.87 397.45 359.13 397.45 347.34 388.07 346.61" style="fill:#ebebeb"></polygon><polygon points="383.6 371.85 374.22 381.22 381.38 387.34 389.72 379 383.6 371.85" style="fill:#ebebeb"></polygon><polygon points="362.59 386.53 349.33 386.53 350.07 395.92 361.86 395.92 362.59 386.53" style="fill:#ebebeb"></polygon><polygon points="337.36 382.06 327.98 372.69 321.86 379.85 330.2 388.18 337.36 382.06" style="fill:#ebebeb"></polygon><polygon points="322.67 361.06 322.67 347.8 313.28 348.53 313.28 360.33 322.67 361.06" style="fill:#ebebeb"></polygon><polygon points="327.13 335.82 336.51 326.44 329.36 320.33 321.02 328.67 327.13 335.82" style="fill:#ebebeb"></polygon></g><g id="freepik--Kanban--inject-3"><rect x="256.1" y="209.82" width="143.3" height="143.3" style="fill:#FFC727"></rect><rect x="277.56" y="311.05" width="99.28" height="2" style="fill:#fff"></rect><polygon points="373.95 316.99 372.61 315.51 376.44 312.05 372.61 308.6 373.95 307.11 379.43 312.05 373.95 316.99" style="fill:#fff"></polygon><path d="M290.54,302.62H277.89V290h12.65Zm-10.65-2h8.65V292h-8.65Z" style="fill:#fff"></path><path d="M290.54,284.72H277.89V272.08h12.65Zm-10.65-2h8.65v-8.64h-8.65Z" style="fill:#fff"></path><path d="M290.54,266.83H277.89V254.18h12.65Zm-10.65-2h8.65v-8.65h-8.65Z" style="fill:#fff"></path><path d="M307.83,284.72H295.18V272.08h12.65Zm-10.65-2h8.65v-8.64h-8.65Z" style="fill:#fff"></path><path d="M307.83,266.83H295.18V254.18h12.65Zm-10.65-2h8.65v-8.65h-8.65Z" style="fill:#fff"></path><path d="M325.12,266.83H312.48V254.18h12.64Zm-10.64-2h8.64v-8.65h-8.64Z" style="fill:#fff"></path><path d="M290.54,248.93H277.89V236.28h12.65Zm-10.65-2h8.65v-8.65h-8.65Z" style="fill:#fff"></path><path d="M307.83,248.93H295.18V236.28h12.65Zm-10.65-2h8.65v-8.65h-8.65Z" style="fill:#fff"></path><path d="M325.12,248.93H312.48V236.28h12.64Zm-10.64-2h8.64v-8.65h-8.64Z" style="fill:#fff"></path><path d="M342.41,248.93H329.77V236.28h12.64Zm-10.64-2h8.64v-8.65h-8.64Z" style="fill:#fff"></path><path d="M304.26,333.82v-7a.66.66,0,0,1,1.32,0v3.45l3.88-3.9a.65.65,0,0,1,.94,0,.67.67,0,0,1,0,.93l-2.64,2.63,2.66,3.49a.64.64,0,0,1-.09.92.61.61,0,0,1-.42.16.66.66,0,0,1-.49-.24l-2.6-3.4-1.24,1.28v1.7a.66.66,0,1,1-1.32,0Z" style="fill:#fff"></path><path d="M317.12,332.5h-2.91l-.59,1.56a.68.68,0,0,1-.63.42.54.54,0,0,1-.22,0,.68.68,0,0,1-.4-.86l2.65-7.07a.66.66,0,0,1,.64-.41.65.65,0,0,1,.63.41l2.65,7.07a.68.68,0,0,1-.39.86.56.56,0,0,1-.23,0,.65.65,0,0,1-.61-.42Zm-.49-1.32-1-2.58-1,2.58Z" style="fill:#fff"></path><path d="M321.91,333.82a.66.66,0,1,1-1.31,0v-7h0a.65.65,0,0,1,1.18-.41l3.87,5.36v-4.94a.66.66,0,0,1,.65-.65.66.66,0,0,1,.66.65v7a.65.65,0,0,1-1.15.42l-.06-.07-3.84-5.33Z" style="fill:#fff"></path><path d="M329.84,333.82v-7.08a.66.66,0,0,1,.66-.66h1.71a2.28,2.28,0,0,1,2.27,2.28,2.23,2.23,0,0,1-.45,1.37,2.57,2.57,0,0,1-1.36,4.75H330.5A.67.67,0,0,1,329.84,333.82Zm1.33-4.49h1a1,1,0,0,0,.94-1,.93.93,0,0,0-.94-.94h-1Zm0,3.82h1.5a1.24,1.24,0,1,0,0-2.48h-1.5Z" style="fill:#fff"></path><path d="M341,332.5H338.1l-.59,1.56a.68.68,0,0,1-.62.42.56.56,0,0,1-.23,0,.68.68,0,0,1-.4-.86l2.65-7.07a.66.66,0,0,1,.64-.41.64.64,0,0,1,.63.41l2.65,7.07a.67.67,0,0,1-.39.86.56.56,0,0,1-.23,0,.66.66,0,0,1-.61-.42Zm-.49-1.32-1-2.58-1,2.58Z" style="fill:#fff"></path><path d="M345.8,333.82a.66.66,0,1,1-1.31,0v-7h0a.65.65,0,0,1,1.18-.41l3.87,5.36v-4.94a.66.66,0,0,1,.65-.65.66.66,0,0,1,.66.65v7a.65.65,0,0,1-1.15.42l-.06-.07-3.84-5.33Z" style="fill:#fff"></path></g><g id="freepik--Waterfall--inject-3"><rect x="100.6" y="209.82" width="143.3" height="143.3" style="fill:#455a64"></rect><path d="M150.29,327.08l-2.94,7a.2.2,0,0,1-.06.11h0l-.06.07s0,0,0,0a.35.35,0,0,0-.09.06h0s-.06.06-.1.07h0l-.09,0h-.29l-.09,0h0a.23.23,0,0,1-.11-.07h0l-.08-.06s0,0,0,0l0-.07h0a.28.28,0,0,1-.05-.11l-1.57-3.72L143,334.07a.58.58,0,0,1-.05.11h0l-.07.07s0,0,0,0l-.07.06h0s-.07.06-.1.07h0a.24.24,0,0,0-.1,0h-.3l-.08,0h0a.3.3,0,0,1-.11-.07h0s-.05-.05-.09-.06,0,0,0,0,0-.05-.06-.07h0s0-.07-.06-.11l-2.95-7a.64.64,0,0,1,.36-.85.63.63,0,0,1,.85.35l2.35,5.55,1.55-3.68a.65.65,0,0,1,.62-.41.68.68,0,0,1,.62.41l1.55,3.68,2.34-5.55a.66.66,0,0,1,.88-.35A.64.64,0,0,1,150.29,327.08Z" style="fill:#FFC727"></path><path d="M155.3,332.5h-2.92l-.58,1.56a.68.68,0,0,1-.63.42.54.54,0,0,1-.22,0,.68.68,0,0,1-.4-.86l2.65-7.07a.66.66,0,0,1,.64-.41.65.65,0,0,1,.63.41l2.65,7.07a.68.68,0,0,1-.39.86.56.56,0,0,1-.23,0,.64.64,0,0,1-.61-.42Zm-.49-1.32-1-2.58-1,2.58Z" style="fill:#FFC727"></path><path d="M162.7,327.42h-1.9v6.4a.66.66,0,1,1-1.32,0v-6.4h-1.9a.68.68,0,0,1-.66-.68.65.65,0,0,1,.66-.66h5.12a.66.66,0,0,1,.66.66A.68.68,0,0,1,162.7,327.42Z" style="fill:#FFC727"></path><path d="M165.35,333.82v-7.08a.65.65,0,0,1,.66-.66h3.92a.67.67,0,0,1,.66.66.68.68,0,0,1-.66.68h-3.25v2.19h2.79a.67.67,0,0,1,0,1.33h-2.79v2.21h3.25a.67.67,0,0,1,0,1.33H166A.65.65,0,0,1,165.35,333.82Z" style="fill:#FFC727"></path><path d="M178.25,333.48a.66.66,0,0,1-.42.84,1,1,0,0,1-.26,0h0a1,1,0,0,1-.47-.13,1.28,1.28,0,0,1-.38-.42,3.19,3.19,0,0,1-.26-1.44,1,1,0,0,0-.14-.52,1.1,1.1,0,0,0-.36-.35,2.27,2.27,0,0,0-.67-.28h-1.42v2.6a.67.67,0,0,1-.67.66.66.66,0,0,1-.66-.66v-7.08a.65.65,0,0,1,.66-.66h2.15a2.57,2.57,0,0,1,1.63,4.55,1.77,1.77,0,0,1,.42.44,2.28,2.28,0,0,1,.4,1.3,3,3,0,0,0,0,.71A.62.62,0,0,1,178.25,333.48Zm-1.68-4.82a1.23,1.23,0,0,0-1.23-1.24h-1.48v2.47h1.48A1.24,1.24,0,0,0,176.57,328.66Z" style="fill:#FFC727"></path><path d="M180.2,333.82v-7.08a.66.66,0,0,1,.66-.66h3.92a.67.67,0,0,1,0,1.34h-3.25v2.19h2.8a.67.67,0,0,1,0,1.33h-2.8v2.88a.67.67,0,0,1-.67.66A.66.66,0,0,1,180.2,333.82Z" style="fill:#FFC727"></path><path d="M190.78,332.5h-2.91l-.59,1.56a.68.68,0,0,1-.62.42.56.56,0,0,1-.23,0,.68.68,0,0,1-.4-.86l2.65-7.07a.67.67,0,0,1,.64-.41.63.63,0,0,1,.63.41l2.65,7.07a.66.66,0,0,1-.39.86.53.53,0,0,1-.23,0,.66.66,0,0,1-.61-.42Zm-.49-1.32-1-2.58-1,2.58Z" style="fill:#FFC727"></path><path d="M194.25,333.82v-7.08a.66.66,0,0,1,.66-.66.67.67,0,0,1,.67.66v6.41h3.25a.67.67,0,0,1,0,1.33h-3.92A.66.66,0,0,1,194.25,333.82Z" style="fill:#FFC727"></path><path d="M201,333.82v-7.08a.66.66,0,0,1,.66-.66.67.67,0,0,1,.67.66v6.41h3.25a.67.67,0,0,1,0,1.33h-3.92A.66.66,0,0,1,201,333.82Z" style="fill:#FFC727"></path><path d="M170.91,258.62H142.29V247.89h28.62Zm-26.62-2h24.62v-6.73H144.29Z" style="fill:#FFC727"></path><polygon points="157.4 269.05 149.41 269.05 149.41 257.62 151.41 257.62 151.41 267.05 157.4 267.05 157.4 269.05" style="fill:#FFC727"></polygon><polygon points="153.53 271.44 156.93 268.05 153.53 264.65 156.41 264.65 159.8 268.05 156.41 271.44 153.53 271.44" style="fill:#FFC727"></polygon><path d="M188.42,274.08H159.8V263.34h28.62Zm-26.62-2h24.62v-6.74H161.8Z" style="fill:#FFC727"></path><polygon points="174.91 284.5 166.92 284.5 166.92 273.08 168.92 273.08 168.92 282.5 174.91 282.5 174.91 284.5" style="fill:#FFC727"></polygon><polygon points="171.04 286.89 174.44 283.5 171.04 280.11 173.92 280.11 177.31 283.5 173.92 286.89 171.04 286.89" style="fill:#FFC727"></polygon><path d="M205.93,289.53H177.31V278.8h28.62Zm-26.62-2h24.62V280.8H179.31Z" style="fill:#FFC727"></path><polygon points="192.41 299.96 184.43 299.96 184.43 288.53 186.43 288.53 186.43 297.96 192.41 297.96 192.41 299.96" style="fill:#FFC727"></polygon><polygon points="188.55 302.35 191.94 298.96 188.55 295.57 191.43 295.57 194.82 298.96 191.43 302.35 188.55 302.35" style="fill:#FFC727"></polygon><path d="M188.42,274.08H159.8V263.34h28.62Zm-26.62-2h24.62v-6.74H161.8Z" style="fill:#FFC727"></path><path d="M223.44,305H194.82V294.26h28.62Zm-26.62-2h24.62v-6.73H196.82Z" style="fill:#FFC727"></path><path d="M153.4,243.17H124.78V232.43H153.4Zm-26.62-2H151.4v-6.74H126.78Z" style="fill:#FFC727"></path><polygon points="139.89 253.59 131.9 253.59 131.9 242.17 133.9 242.17 133.9 251.59 139.89 251.59 139.89 253.59" style="fill:#FFC727"></polygon><polygon points="136.02 255.98 139.41 252.59 136.02 249.2 138.9 249.2 142.29 252.59 138.9 255.98 136.02 255.98" style="fill:#FFC727"></polygon></g><g id="freepik--Scrum--inject-3"><rect x="256.1" y="54.33" width="143.3" height="143.3" style="fill:#455a64"></rect><rect x="281.27" y="155.55" width="95.57" height="2" style="fill:#FFC727"></rect><path d="M329.07,157.55v-2a33.56,33.56,0,1,0-22.71-8.84L305,148.18a35.58,35.58,0,1,1,24.06,9.37Z" style="fill:#FFC727"></path><path d="M329.07,157.55v-2a33.66,33.66,0,0,0,3.44-67.15,23.25,23.25,0,0,0-2.51,0l-.11-2a22.88,22.88,0,0,1,2.83,0,35.66,35.66,0,0,1-3.65,71.14Z" style="fill:#FFC727"></path><polygon points="373.95 161.5 372.61 160.01 376.44 156.56 372.61 153.1 373.95 151.61 379.43 156.56 373.95 161.5" style="fill:#FFC727"></polygon><polygon points="306.45 148.5 299.15 147.47 299.43 145.49 304.54 146.21 304.72 141.06 306.72 141.13 306.45 148.5" style="fill:#FFC727"></polygon><path d="M371.26,102.62l-1-1.72a11.81,11.81,0,1,0-16.17-4.15l-1.72,1a13.8,13.8,0,1,1,18.91,4.85Z" style="fill:#FFC727"></path><polygon points="375.04 104.98 367.92 103.02 370.61 96.14 372.47 96.87 370.59 101.68 375.57 103.05 375.04 104.98" style="fill:#FFC727"></polygon><path d="M307.07,176.89a.62.62,0,0,1,.87-.08,3.88,3.88,0,0,0,2.29.92,2.61,2.61,0,0,0,1.5-.44,1.07,1.07,0,0,0,.52-.86.71.71,0,0,0-.11-.39,1.11,1.11,0,0,0-.36-.36,5,5,0,0,0-1.64-.56h0a6.53,6.53,0,0,1-1.55-.47,2.52,2.52,0,0,1-1.11-.93,1.87,1.87,0,0,1-.28-1,2.22,2.22,0,0,1,1-1.75,3.56,3.56,0,0,1,2.08-.63,4.65,4.65,0,0,1,2.61,1,.62.62,0,0,1-.68,1,3.46,3.46,0,0,0-1.93-.77,2.33,2.33,0,0,0-1.35.41,1,1,0,0,0-.45.75.59.59,0,0,0,.08.34,1.25,1.25,0,0,0,.33.31,4,4,0,0,0,1.5.53h0a7.18,7.18,0,0,1,1.66.5,2.72,2.72,0,0,1,1.19,1,2,2,0,0,1,.29,1,2.34,2.34,0,0,1-1,1.86,3.77,3.77,0,0,1-2.22.68,5.16,5.16,0,0,1-3.07-1.2A.64.64,0,0,1,307.07,176.89Z" style="fill:#FFC727"></path><path d="M315,174.66a4.39,4.39,0,0,1,4.4-4.31,4.45,4.45,0,0,1,2.77.93.69.69,0,0,1-.84,1.09,3,3,0,0,0-1.93-.66,3.2,3.2,0,0,0-2.16.87,2.93,2.93,0,0,0,0,4.17,3.19,3.19,0,0,0,2.16.86,3,3,0,0,0,1.93-.66.73.73,0,0,1,1,.14.7.7,0,0,1-.12,1,4.51,4.51,0,0,1-2.77.93A4.38,4.38,0,0,1,315,174.66Z" style="fill:#FFC727"></path><path d="M330.14,178a.66.66,0,0,1-.42.84,1.35,1.35,0,0,1-.27,0h0a.86.86,0,0,1-.47-.13,1.29,1.29,0,0,1-.38-.42,3.21,3.21,0,0,1-.25-1.44,1.07,1.07,0,0,0-.14-.52,1.11,1.11,0,0,0-.37-.34,2.1,2.1,0,0,0-.67-.29h-1.41v2.6a.67.67,0,0,1-.67.66.66.66,0,0,1-.66-.66v-7.07a.65.65,0,0,1,.66-.66h2.14a2.56,2.56,0,0,1,2.57,2.57,2.53,2.53,0,0,1-.94,2,1.81,1.81,0,0,1,.42.45,2.25,2.25,0,0,1,.4,1.29,2.8,2.8,0,0,0,.05.71A.64.64,0,0,1,330.14,178Zm-1.68-4.83a1.23,1.23,0,0,0-1.24-1.24h-1.47v2.47h1.47A1.23,1.23,0,0,0,328.46,173.16Z" style="fill:#FFC727"></path><path d="M334.84,179a3.45,3.45,0,0,1-3.46-3.46v-4.27a.65.65,0,0,1,.66-.66.66.66,0,0,1,.67.66v4.27a2.14,2.14,0,0,0,4.27,0v-4.27a.66.66,0,0,1,.67-.66.65.65,0,0,1,.66.66v4.27A3.47,3.47,0,0,1,334.84,179Z" style="fill:#FFC727"></path><path d="M347.75,171.25v7.07a.67.67,0,0,1-.67.66.66.66,0,0,1-.66-.66v-5l-1.72,2.4a.68.68,0,0,1-.54.28h0a.68.68,0,0,1-.55-.28l-1.72-2.4v5a.67.67,0,0,1-1.33,0v-7.07a.67.67,0,0,1,.66-.66h0a.65.65,0,0,1,.53.27l2.38,3.31,2.39-3.31a.64.64,0,0,1,.54-.27h0A.68.68,0,0,1,347.75,171.25Z" style="fill:#FFC727"></path></g><g id="freepik--Agile--inject-3"><rect x="100.6" y="54.33" width="143.3" height="143.3" style="fill:#FFC727"></rect><path d="M152.06,151.62a35.67,35.67,0,0,1,16-65.2l.21,2A33.67,33.67,0,0,0,153.17,150Z" style="fill:#fff"></path><path d="M171.76,157.55v-2A33.66,33.66,0,0,0,175.2,88.4a20.76,20.76,0,0,0-2.5,0l-.11-2a22.68,22.68,0,0,1,2.82,0,35.66,35.66,0,0,1-3.65,71.14Z" style="fill:#fff"></path><rect x="129.68" y="155.55" width="42.08" height="2" style="fill:#fff"></rect><rect x="191.29" y="155.55" width="28.25" height="2" style="fill:#fff"></rect><path d="M130.68,162.27H119.25V150.84h11.43Zm-9.43-2h7.43v-7.43h-7.43Z" style="fill:#fff"></path><polygon points="216.65 161.5 215.31 160.01 219.14 156.56 215.31 153.1 216.65 151.61 222.12 156.56 216.65 161.5" style="fill:#fff"></polygon><polygon points="176.07 92.34 170.59 87.4 176.07 82.46 177.41 83.95 173.58 87.4 177.41 90.86 176.07 92.34" style="fill:#fff"></polygon><path d="M160.45,177h-2.92l-.58,1.56a.67.67,0,0,1-.63.42.85.85,0,0,1-.23,0,.69.69,0,0,1-.39-.87l2.65-7.06a.69.69,0,0,1,1.27,0l2.65,7.06a.69.69,0,0,1-.4.87.73.73,0,0,1-.22,0,.65.65,0,0,1-.62-.42Zm-.49-1.32-1-2.58-1,2.58Z" style="fill:#fff"></path><path d="M163.16,174.68a4.44,4.44,0,0,1,7.16-3.4.68.68,0,1,1-.84,1.08,3.13,3.13,0,0,0-1.89-.65,3,3,0,0,0-2.16.88,2.84,2.84,0,0,0,0,4.15,3,3,0,0,0,2.16.87,3.35,3.35,0,0,0,1.64-.45v-1.64h-1.71a.7.7,0,0,1-.69-.69.67.67,0,0,1,.69-.67h2.38a.68.68,0,0,1,.7.67v2.65a1.3,1.3,0,0,1,0,.21l0,.06h0a.62.62,0,0,1-.23.29,4.47,4.47,0,0,1-2.72.93A4.36,4.36,0,0,1,163.16,174.68Z" style="fill:#fff"></path><path d="M173.38,171.25a.65.65,0,0,1,.66-.66.67.67,0,0,1,.68.66v7.07a.68.68,0,0,1-.68.66.65.65,0,0,1-.66-.66Z" style="fill:#fff"></path><path d="M177,178.32v-7.07a.66.66,0,0,1,.66-.66.67.67,0,0,1,.67.66v6.4h3.25a.67.67,0,0,1,0,1.33h-3.92A.66.66,0,0,1,177,178.32Z" style="fill:#fff"></path><path d="M183.72,178.32v-7.07a.64.64,0,0,1,.66-.66h3.92a.66.66,0,0,1,.66.66.67.67,0,0,1-.66.67h-3.25v2.19h2.79a.67.67,0,0,1,0,1.33h-2.79v2.21h3.25a.67.67,0,0,1,0,1.33h-3.92A.65.65,0,0,1,183.72,178.32Z" style="fill:#fff"></path></g><g id="freepik--Floor--inject-3"><path d="M50.26,472.2c128-.62,271.52-.62,399.48,0-128,.61-271.52.61-399.48,0Z" style="fill:#263238"></path></g><g id="freepik--Character--inject-3"><path d="M305.51,471.14c2.44.79,72.16-.09,74.79-1.82,1-.63,1.47-10.8,1.68-23.1v-.38c0-2.54.08-5.15.09-7.79,0-.37,0-.73,0-1.1l-3.37-36.16-45,.45,3,35.83.06,1.42.28,7.42,0,.76S310.49,459,307.8,461.14,303.06,470.36,305.51,471.14Z" style="fill:#d3766a"></path><path d="M305.51,471.14c2.44.79,72.16-.09,74.79-1.82,1-.63,1.47-10.8,1.68-23.1v-.38c0-2.54.08-5.15.09-7.79,0-.37,0-.73,0-1.1l-45.42.12.06,1.42.28,7.42,0,.76S310.49,459,307.8,461.14,303.06,470.36,305.51,471.14Z" style="fill:#ebebeb"></path><path d="M305.5,471.14c1.26.4,20.2.37,38.71,0,3.73-.08,7.43-.16,11-.26,13.2-.36,24.11-.9,25.12-1.56s1.47-10.51,1.67-22.59c0-.17,0-.34,0-.51s0-.26,0-.39h-.05L337,445.9l0,.77s-26.54,12.27-29.23,14.47S303.06,470.36,305.5,471.14Z" style="fill:#FFC727"></path><path d="M305.5,471.14c1.26.4,20.2.37,38.71,0,3.73-.08,7.43-.16,11-.26,13.2-.36,24.11-.9,25.12-1.56s1.47-10.51,1.67-22.59c0-.17,0-.34,0-.51s0-.26,0-.39h-.05L337,445.9l0,.77s-26.54,12.27-29.23,14.47S303.06,470.36,305.5,471.14Z" style="opacity:0.5"></path><path d="M306.26,468.43c11.75-.44,59.18-1.1,70.82-.64.1,0,.1.07,0,.08-11.63.69-59.06,1-70.82.75C306,468.62,306,468.44,306.26,468.43Z" style="fill:#263238"></path><path d="M332,446.1c4.62-.92,10.28-.28,13.86,3,.14.13-.05.33-.2.28A65.1,65.1,0,0,0,332,446.68.29.29,0,0,1,332,446.1Z" style="fill:#263238"></path><path d="M328.68,448.15c4.61-.92,10.28-.28,13.85,3,.14.13,0,.32-.19.27a65.08,65.08,0,0,0-13.63-2.65A.3.3,0,0,1,328.68,448.15Z" style="fill:#263238"></path><path d="M325.37,450.21c4.61-.92,10.28-.29,13.85,3,.14.13,0,.32-.19.28a65.06,65.06,0,0,0-13.64-2.66A.29.29,0,0,1,325.37,450.21Z" style="fill:#263238"></path><path d="M344.21,471.14c3.73-.08,7.43-.16,11-.26,13.2-.36,24.11-.9,25.12-1.56s1.47-10.51,1.67-22.59c0-.17,0-.34,0-.51s0-.26,0-.39h-.05C375.78,450.15,354.08,464.58,344.21,471.14Z" style="opacity:0.1"></path><path d="M334.31,446.06h50.21s-10.08-117.27-9.69-119.32c.51-2.62,3.47-14.49,7.42-30,1.24-4.85,2.58-10.05,4-15.45,3.75-14.59,7.88-30.53,11.48-44.4,5.4-20.79,9.62-31.5,9.62-31.5H364.75s-35,100.15-36.37,120.85C327.16,344.29,334.31,446.06,334.31,446.06Z" style="fill:#263238"></path><path d="M336.54,437.5c7.67-.16,5.46-.23,13.13-.3,3.76,0,28.42-.24,31.93.34.07,0,.07.14,0,.16-3.51.58-28.17.36-31.93.32-7.67-.08-5.46-.14-13.13-.3A.11.11,0,1,1,336.54,437.5Z" style="fill:#37474f"></path><path d="M365.39,319.58c1.65-7.26,4.11-14.37,6.25-21.49q6.54-21.72,13.14-43.4c2.2-7.23,12.41-34.28,13.42-37.88.41-1.46.63-.66.11,1.2-1.06,3.74-18.5,57.37-22.92,72.07q-3.31,11-6.65,22.09A91.42,91.42,0,0,0,366,322.86a49.12,49.12,0,0,0-.45,11.43c.48,7.69,1.37,15.36,2.08,23s1.41,15.36,2.12,23q2.13,22.93,4.2,45.86c.17,1.94.34,3.87.49,5.81,0,.65-.93.6-1,0-1.65-15.11-2.91-30.28-4.33-45.41s-2.82-30.13-4.22-45.19c-.35-3.78-.75-7.57-.76-11.37A47.15,47.15,0,0,1,365.39,319.58Z" style="fill:#37474f"></path><path d="M369.58,205.39c2.95,22.86,8.57,60.27,12.67,91.36,9.61-37.66,25.06-91.35,25.06-91.35Z" style="fill:#37474f"></path><path d="M357.43,471.83c2.44.8,72.16.16,74.8-1.55,1-.63,1.51-10.8,1.76-23.1,0-.12,0-.25,0-.38.06-2.53.1-5.15.11-7.79,0-.36,0-.73,0-1.09.17-17.75-1.11-36.17-1.11-36.17l-45.57.29,1.26,35.83.05,1.42.25,7.42,0,.76s-26.58,12.18-29.28,14.37S355,471,357.43,471.83Z" style="fill:#d3766a"></path><path d="M357.43,471.83c2.44.8,72.16.16,74.8-1.55,1-.63,1.51-10.8,1.76-23.1,0-.12,0-.25,0-.38.06-2.53.1-5.15.11-7.79,0-.36,0-.73,0-1.09l-45.42-.05.05,1.42.25,7.42,0,.76s-26.58,12.18-29.28,14.37S355,471,357.43,471.83Z" style="fill:#ebebeb"></path><path d="M357.43,471.83c2.44.8,72.16.16,74.8-1.55,1-.63,1.51-10.8,1.76-23.1,0-.12,0-.25,0-.38l-45-.09,0,.76s-26.58,12.18-29.28,14.37S355,471,357.43,471.83Z" style="fill:#FFC727"></path><path d="M357.43,471.83c2.44.8,72.16.16,74.8-1.55,1-.63,1.51-10.8,1.76-23.1,0-.12,0-.25,0-.38l-45-.09,0,.76s-26.58,12.18-29.28,14.37S355,471,357.43,471.83Z" style="opacity:0.5"></path><path d="M358.19,469.12c11.75-.4,59.18-.88,70.83-.38.09,0,.09.07,0,.07-11.64.65-59.07.75-70.82.5C358,469.3,358,469.13,358.19,469.12Z" style="fill:#263238"></path><path d="M384,446.88c4.61-.91,10.28-.25,13.84,3,.14.12,0,.32-.19.27A65.18,65.18,0,0,0,384,447.46.29.29,0,0,1,384,446.88Z" style="fill:#263238"></path><path d="M380.69,448.92c4.62-.9,10.28-.24,13.84,3,.14.12,0,.32-.19.27a65.17,65.17,0,0,0-13.63-2.7A.3.3,0,0,1,380.69,448.92Z" style="fill:#263238"></path><path d="M377.37,451c4.62-.9,10.28-.24,13.84,3,.14.13,0,.32-.19.28a64.55,64.55,0,0,0-13.63-2.71A.3.3,0,0,1,377.37,451Z" style="fill:#263238"></path><path d="M365,205.39a165,165,0,0,0,5.63,31.05c.38,1.33.78,2.65,1.22,3.91,0,0,3.76,1.76,11.18,6.3,0,0,.48,16.38,1,34.65.54,20.42,1.1,43.2,1,48-.43,18.07,2.23,117.47,2.23,117.47l50.2.21s-9.05-111-9-117.62c.1-10.64-2.18-53.38-4.12-87.69,0,0,2.36-7.86,2.2-10.43-1-15.67-4.61-25.88-4.61-25.88Z" style="fill:#263238"></path><path d="M389,437.88c7.67-.12,5.46-.2,13.13-.24,3.76,0,28.42-.12,31.92.48a.08.08,0,0,1,0,.15c-3.51.57-28.17.24-31.92.19-7.67-.11-5.47-.16-13.13-.36A.11.11,0,1,1,389,437.88Z" style="fill:#37474f"></path><path d="M417.72,212.68c.92,28,1.89,50.58,3.14,78.57s2.93,56.18,5.28,84.2c1.31,15.65,2.54,37.68,4.23,53.3,0,.1-.15.14-.17,0-3.65-27.78-5.68-62.13-7.47-90.09s-3-56-4-83.95c-.53-15.84-.94-26.24-1.41-42.08C417.36,212.43,417.71,212.45,417.72,212.68Z" style="fill:#37474f"></path><path d="M415.79,230.88c-1.24-.32-2.56-.42-3.82-.62-1-.16-2-.34-3-.56a13.28,13.28,0,0,1-5.36-2.26c-2.5-2-5.37-11.87-5.72-12.5-.61-1.09-.79-.14-.79,0,0,1.16,2.64,9.84,3.66,11.46,1.86,3,5.19,4.16,8.52,4.58.95.12,1.91.18,2.87.24a21.08,21.08,0,0,0,3.64,0A.17.17,0,0,0,415.79,230.88Z" style="fill:#37474f"></path><path d="M372.05,240.58a89.93,89.93,0,0,1,14.14,6.59.16.16,0,0,1-.13.29c-4.76-2.05-9.62-4-14.26-6.31A.31.31,0,0,1,372.05,240.58Z" style="fill:#37474f"></path><path d="M370.62,208c0-.16.3-.2.3,0a157.31,157.31,0,0,0,.8,15.91c.22,2.45,2.19,16,6.45,15,.71-.16,1.07-.86,1.18-1.94a16.85,16.85,0,0,0-.56-4.15c-.47-2.84-.85-5.69-1.1-8.56a78.18,78.18,0,0,1,.18-16,.14.14,0,0,1,.27,0,147.63,147.63,0,0,0,1.3,22.14c.53,3.53,2.31,8.84-1.38,9.38s-6.19-8.34-6.65-10.77A81.07,81.07,0,0,1,370.62,208Z" style="fill:#37474f"></path><path d="M378.05,239.24a21.65,21.65,0,0,1,1,2.81,6.57,6.57,0,0,1,.4,2.31c0,.15-.22.16-.3.06a8.11,8.11,0,0,1-1-2.25c-.32-.86-.66-1.73-1-2.61A.47.47,0,0,1,378.05,239.24Z" style="fill:#37474f"></path><path d="M381.17,142.16c-3.51,23.12-9.68,46.17-13.53,49.75-6,5.55-38.79,13-49.35,13.37-3.46.12-6.1-23.31-3.28-25.7s38-7.93,40-9.07c1-.61,9.86-18.31,16.62-30.14C377.9,129.37,382.23,135.14,381.17,142.16Z" style="fill:#d3766a"></path><path d="M330.2,204.82l-3.73-29.57s25-5.23,28-6.13c1.27-.38,12.3-22.23,17.59-31.59,3.47-6.15,10.45-8.06,9.91,5.59-.32,8-7.33,45.44-13.64,50.53C363.28,197.69,330.2,204.82,330.2,204.82Z" style="fill:#FFC727"></path><path d="M335.5,202.17c.07-2.15-1.13-11-1.46-13.17s-1.92-10.95-2.26-13.2c0-.12-.2-.13-.18,0,.3,2.24,1.21,11.13,1.51,13.33s1.61,11,2.28,13.06A.06.06,0,0,0,335.5,202.17Z" style="fill:#263238"></path><path d="M382,140.86c0,.34,0,.69,0,1.06s0,.79,0,1.2c-.06,1.37-.3,3.61-.72,6.42-.07.51-.15,1-.24,1.57-.05.34-.1.68-.16,1-.12.73-.24,1.47-.38,2.24,0,.13-.05.26-.07.4-.14.84-.29,1.7-.46,2.58-.12.64-.24,1.28-.37,1.94s-.25,1.32-.39,2c-.06.34-.13.67-.21,1-.75,3.7-1.62,7.56-2.57,11.28-.26,1-.52,2-.8,3-.17.65-.35,1.31-.54,1.94s-.36,1.27-.55,1.88c-2,6.45-4.12,11.6-6.18,13.27-3.39,2.75-19.66,6.9-29.8,9.3l38.1-69.85A3.22,3.22,0,0,1,377,133a2.9,2.9,0,0,1,2.59.49,3.58,3.58,0,0,1,.88,1,6,6,0,0,1,.49.95,7.42,7.42,0,0,1,.41,1.18A18.16,18.16,0,0,1,382,140.86Z" style="fill:#020100;opacity:0.1"></path><path d="M361,208.58c1,1,61.26-1.86,61.56-2.25.79-1.06-18-61.4-30.81-73.18-4.42-4.06-11.88-3.35-15.69-.63-1.52,1.08-5.24,9.31-7.15,16.19C365.06,162.49,360.13,207.72,361,208.58Z" style="fill:#ebebeb"></path><polygon points="380.53 147.46 378.26 141.76 374.3 144.92 375.63 149.72 379.21 150 380.53 147.46" style="fill:#263238"></polygon><polygon points="379.21 150 382.86 189.98 376 203.59 368.98 187.98 375.63 149.72 379.21 150" style="fill:#263238"></polygon><path d="M356,221.65l14,1.32s4.05-12.62,4.21-12.62c.11.2,2.74,9,3.68,12.62,10.31-.52,50.06-4.37,50.42-4.65s-4.79-12.61-5.36-14.43c-4.44-14.4-12.35-43-18.39-53.61a99.16,99.16,0,0,0-9.2-13.78c-.36-.41-.67-.8-1-1.14l-2.19-2.51L374,170.27c-.05-.66-.32-34.92-.32-34.92-.88,1.29-5.81,12.49-8.8,25.4-3.73,16.11-5,38.42-5.95,49.61C358.93,210.36,356,221.42,356,221.65Z" style="fill:#FFC727"></path><path d="M374,170.27q.88,20,.27,40.08-.9-20-.27-40.08Z" style="fill:#263238"></path><path d="M376.58,206a1.2,1.2,0,0,0,2.4,0,1.2,1.2,0,0,0-2.4,0Zm0,0a1.45,1.45,0,0,1,2.89,0,1.45,1.45,0,0,1-2.89,0Z" style="fill:#263238"></path><path d="M376.58,195.72a1.2,1.2,0,0,0,2.4,0,1.2,1.2,0,0,0-2.4,0Zm0,0a1.45,1.45,0,0,1,2.89,0,1.45,1.45,0,0,1-2.89,0Z" style="fill:#263238"></path><path d="M376.58,185.4a1.2,1.2,0,0,0,2.4,0,1.2,1.2,0,0,0-2.4,0Zm0,0a1.45,1.45,0,0,1,2.89,0,1.45,1.45,0,0,1-2.89,0Z" style="fill:#263238"></path><path d="M376.58,175.09a1.2,1.2,0,0,0,2.4,0,1.2,1.2,0,0,0-2.4,0Zm0,0a1.45,1.45,0,0,1,2.89,0,1.45,1.45,0,0,1-2.89,0Z" style="fill:#263238"></path><path d="M400,142.63c9.12,16.91,19.38,45.68,16.49,51.05-7.23,13.45-24.27,27.48-32.19,32.09-4.62,2.68-20-21-16-23.6,6.29-4.08,22.83-18.17,24.82-20.07,1.07-1-2.13-21.34-3-34.79C389.15,132.68,395.53,134.39,400,142.63Z" style="fill:#d3766a"></path><rect x="326.08" y="158.69" width="9.65" height="60.68" transform="translate(709.71 147.38) rotate(143.99)" style="fill:#c7c7c7"></rect><polygon points="357.7 238.31 369.51 229.73 369.51 229.73 341.22 190.8 341.22 190.8 329.41 199.39 329.41 199.39 357.7 238.31" style="fill:#263238"></polygon><g style="opacity:0.2"><path d="M272.62,168.12a48.65,48.65,0,1,1,37-3.49A48.66,48.66,0,0,1,272.62,168.12Z" style="fill:#fff"></path></g><path d="M270.21,176a56.8,56.8,0,1,1,71-37.54A56.86,56.86,0,0,1,270.21,176Zm1.92-6.23a50.28,50.28,0,1,0-33.23-62.87A50.33,50.33,0,0,0,272.13,169.73Z" style="fill:#263238"></path><path d="M338.46,114.61a52,52,0,0,0-75.78-38.86A51.88,51.88,0,0,0,241,146a51.95,51.95,0,0,0,95.59-9A51.54,51.54,0,0,0,338.46,114.61ZM333.38,136a48.65,48.65,0,1,1-3.48-37A48.65,48.65,0,0,1,333.38,136Zm5.08-21.4a52,52,0,0,0-75.78-38.86A51.88,51.88,0,0,0,241,146a51.95,51.95,0,0,0,95.59-9A51.54,51.54,0,0,0,338.46,114.61ZM333.38,136a48.65,48.65,0,1,1-3.48-37A48.65,48.65,0,0,1,333.38,136Zm11.53-22.29a58.49,58.49,0,1,0-2.07,25.2A58.52,58.52,0,0,0,344.91,113.72Zm-5.3,24.21a55.14,55.14,0,1,1,1.93-23.74A54.78,54.78,0,0,1,339.61,137.93Zm-6.72-40.52a51.59,51.59,0,1,0,5.57,17.2A51.66,51.66,0,0,0,332.89,97.41Zm.49,38.6a48.65,48.65,0,1,1-3.48-37A48.65,48.65,0,0,1,333.38,136Z" style="fill:#263238"></path><path d="M250.48,138.54a37.31,37.31,0,0,1-3.75-15,40.36,40.36,0,0,1,.4-7.91,42,42,0,0,1,2-7.76,38.71,38.71,0,0,1,8.65-13.5,43.19,43.19,0,0,1,13-9,77.53,77.53,0,0,0-11,10.73,46.83,46.83,0,0,0-4.26,6.18,39.24,39.24,0,0,0-3.19,6.71,48.11,48.11,0,0,0-2.94,14.52A62.89,62.89,0,0,0,250.48,138.54Z" style="fill:#fff"></path><path d="M325.26,117.42a37.29,37.29,0,0,1-.49,15.44,39.72,39.72,0,0,1-2.55,7.5,42.57,42.57,0,0,1-4.05,6.92,38.8,38.8,0,0,1-12,10.62,42.88,42.88,0,0,1-15,5.14,76.84,76.84,0,0,0,13.56-7.29,48.53,48.53,0,0,0,5.79-4.78,40,40,0,0,0,4.9-5.59,48,48,0,0,0,6.79-13.17A62.35,62.35,0,0,0,325.26,117.42Z" style="fill:#fff"></path><path d="M377.31,200.19s-10.39,0-17.19.3c-3.8.17-10.28,1-13,2.45C343,205,327.3,216.42,330,220.29c2.43,3.51,14.7-8,14.7-8s-13.41,10.51-9.72,14.19,15.84-11.14,15.84-11.14-13.54,11.1-9.13,14.3c3.34,2.41,15.09-10.4,15.09-10.4s-11.57,9.62-8.25,12.26c3.67,2.91,15.26-8.24,15.26-8.24,9.57,5.28,16.43,4.61,20.94,2.31C385.76,225,377.31,200.19,377.31,200.19Z" style="fill:#d3766a"></path><path d="M348.46,208.89c-10.47,7-13.46,13.61-13.35,13.45,2.72-3.78,8.06-8.57,9.57-9.89s2.33-2.19,3.83-3.5C348.55,208.91,348.5,208.87,348.46,208.89Z" style="fill:#263238"></path><path d="M353.93,213.74a42.8,42.8,0,0,0-11.39,10c-.11.16,0,.17.12,0,1.88-1.72,9.37-8.37,11.31-10C354,213.76,354,213.72,353.93,213.74Z" style="fill:#263238"></path><path d="M358.93,217.6a31.57,31.57,0,0,0-8.6,8c-.12.15,0,.16.17,0,2.81-2.71,5-4.87,8.51-7.92C359.06,217.66,359,217.55,358.93,217.6Z" style="fill:#263238"></path><path d="M390.31,227.06,370,198.72l21.73-17c-1.32-11-4-33-3.74-40.78.26-9.09,6.59-9.5,11.51-1.64,11.25,18,22.15,50.53,21.3,55.76C419.61,202.53,390.31,227.06,390.31,227.06Z" style="fill:#FFC727"></path><path d="M392.43,220.25c-.93-2-6.05-9.41-7.34-11.24s-6.74-9-8.08-10.91c-.07-.11-.24,0-.17.07,1.29,1.89,6.18,9.52,7.46,11.36s6.47,9.2,8,10.78A.06.06,0,0,0,392.43,220.25Z" style="fill:#263238"></path><path d="M397.06,221.22c3.46-3.56,9-9.07,12.52-12.64q3.14-3.15,6.14-6.41c1.87-2.22,4.16-4.33,5.11-7.13a5.78,5.78,0,0,1-.71,2.12c-2.52,4.58-6.24,8.37-9.82,12.12a152.75,152.75,0,0,1-13.24,11.94Z" style="fill:#263238"></path><path d="M389.05,155.4c.95,7.41,2.21,16,3,23.46.09.95.2,1.85.2,2.82a.68.68,0,0,1-.19.46c-5,4.48-11.08,8.63-16.49,12.66L370,198.7v-.07l1,1.59L370,198.69l0,0,0,0,5.28-4.22c5.16-4.17,11.14-8.51,16-12.88h0a.3.3,0,0,0,0,.14c0-.33,0-.66-.07-1-.73-8.24-1.92-17-2.16-25.23Z" style="fill:#263238"></path><path d="M388.35,156.91c.5,1.16.77,2.45,1.18,3.64a8.59,8.59,0,0,1-1.18-3.64Z" style="fill:#263238"></path><path d="M340.59,201.5c.69-3.52-3.85-2.32-3.85-2.32s6.12-3.3,5.44-7.21c-.68-3.76-6.12-2.12-6.51-2,.32-.17,5.87-3.36,4.78-7.21-1.15-4-6.32-1.42-6.66-1.25.26-.26,3.53-3.8,2-6.53-2.58-4.71-12.78,4.61-17.12,4.48L314,172.88a10.82,10.82,0,0,1-.82,6.05c-1.15,2.78-1.93,4.62-1.78,6.5a3.93,3.93,0,0,0,3,3.63s-3,2.35-2.22,5.41c.4,1.57,3.26,2.33,3.26,2.33s-2.31,2-1.46,4.66c.67,2.14,3.44,2.57,3.44,2.57s-1.34,2.93.06,4.9C320.25,212.89,339.1,209,340.59,201.5Z" style="fill:#d3766a"></path><path d="M317.39,178.1,314.06,173l-.5-.47c-5.84-5.12-15.64-3.41-12.69,1.32,2.24,3.59,9.44,3.69,11.2,7.71h0Z" style="fill:#d3766a"></path><path d="M317.81,204.16a.06.06,0,0,0,0,.11A33.4,33.4,0,0,0,337,199.14c.18-.12.06-.46-.16-.37A68.05,68.05,0,0,1,317.81,204.16Z" style="fill:#263238"></path><path d="M315.32,196.86c-.08,0-.06.13,0,.13,6.7.21,14.79-2,20.57-6.89.2-.17.21-.52,0-.35C331.78,192.75,321.49,196.13,315.32,196.86Z" style="fill:#263238"></path><path d="M334.08,181c-5.73,4.52-12.33,6.75-19.44,8.06-.09,0-.06.15,0,.16,3.66.3,8.1-1,11.47-2.32a19.3,19.3,0,0,0,8.11-5.7C334.32,181.12,334.2,180.92,334.08,181Z" style="fill:#263238"></path><path d="M392.35,135.41c.88,2.77,2.6,8.35,3.42,11.13l.08.28-.29.06c-3.11.59-6.23,1.13-9.35,1.68l.24-.49c1,1.85,2,3.69,2.92,5.56-5.06,5.61-10.14,11.19-15.37,16.64,4.79-5.74,9.71-11.35,14.67-16.93l-.05.4c-1-1.91-2-3.85-3-5.77,3.28-.55,6.55-1.11,9.83-1.62l-.21.34c-.75-2.8-2.2-8.46-2.9-11.28Z" style="fill:#263238"></path><path d="M374,170.27c-1.55-5.59-3-11.21-4.4-16.84l0-.12c.93-1.75,1.81-3.52,2.77-5.25l.32.53-3.55,0c.78-2.24,1.59-4.48,2.43-6.7s1.58-4.15,2.41-6.21c-1.26,4.26-2.61,8.48-4.05,12.69l-.32-.45,3.68,0c-1,1.91-2,3.77-3.05,5.65,1.29,4.38,2.61,11.45,3.79,16.76Z" style="fill:#263238"></path><path d="M378.56,142.12c3.61.68,10.25-5.55,12.47-10.08.15-.31-.46-3.49-1-7.38-.34-2.36-.65-5-.76-7.43l-15.06,4.4a38.8,38.8,0,0,1,1.9,9.26,5.43,5.43,0,0,1-.06,1c0,.05,0,.1,0,.17C375.79,134,375.07,141.46,378.56,142.12Z" style="fill:#d3766a"></path><path d="M376,131.89c0,.05,0,.1,0,.16a10,10,0,0,0,1.56,0c8.81-.6,10.39-11.49,10.65-14.54l-3.76,1.1-10.28,3a38.62,38.62,0,0,1,1.89,9.26A4.69,4.69,0,0,1,376,131.89Z" style="fill:#263238"></path><path d="M376.08,131.19l2.88,9.15L390.86,130l2.84,3.85s-12.17,17-12.17,16.2l-3.07-7.94L372.77,147l1.46-13.33Z" style="fill:#ebebeb"></path><path d="M373.12,140.36c.31-2.19.57-4.41,1-6.59,0-.07.14-.1.16,0,.27,2.17-1,10.55-1.12,12.57l0,0c.24-.22,5.26-4.31,5.3-4.24.7,1.28,3,7.06,3.1,7.58,1.92-2.7,9.26-12.5,11.49-15a.08.08,0,1,1,.12.09c-1.73,2.88-11.46,16.09-11.59,16a86,86,0,0,1-3.2-8.39c-.87.91-6,5.57-6,5.24A70.4,70.4,0,0,1,373.12,140.36Z" style="fill:#263238"></path><path d="M392.26,101.16c1.12,5.66-3.39,21.23-7.65,24.37-6.19,4.56-15.51,4.11-19.18-3.14-3.55-7,2.69-27.22,7.38-30C379.71,88.31,390.61,92.79,392.26,101.16Z" style="fill:#d3766a"></path><path d="M369.6,107.68s-.09,0-.1.07c-.23,1.07-.66,2.26-1.71,2.38,0,0,0,.06,0,.06C369,110.31,369.56,108.73,369.6,107.68Z" style="fill:#263238"></path><path d="M368.92,106.34c-1.67-.54-2.64,2.85-1.08,3.35S370.33,106.8,368.92,106.34Z" style="fill:#263238"></path><path d="M378.65,108.37a13.75,13.75,0,0,1-1.44-.12,2.3,2.3,0,0,1-1.45-.4.73.73,0,0,1-.12-.9,1.84,1.84,0,0,1,1.75-.66,2.77,2.77,0,0,1,1.82.73A.8.8,0,0,1,378.65,108.37Z" style="fill:#263238"></path><path d="M367.87,104.49a13.88,13.88,0,0,0,1.44.07,2.37,2.37,0,0,0,1.49-.22.74.74,0,0,0,.22-.88,1.82,1.82,0,0,0-1.65-.87,2.69,2.69,0,0,0-1.89.5A.79.79,0,0,0,367.87,104.49Z" style="fill:#263238"></path><path d="M374.85,119.24c-.32.19-.66.47-1.05.41a2.93,2.93,0,0,1-1.07-.54s-.08,0-.06,0a1.45,1.45,0,0,0,1.2.9,1.16,1.16,0,0,0,1.07-.73C375,119.26,374.89,119.22,374.85,119.24Z" style="fill:#263238"></path><path d="M374.5,115.8a3.76,3.76,0,0,1-2.8,1,4.68,4.68,0,0,1-1.32-.26,1.17,1.17,0,0,1-.24-.09l-.22-.09a.28.28,0,0,1-.16-.29h0a.45.45,0,0,1,0-.11h0l0-.09c.17-.82.56-2,.56-2-.34.08-2,.4-1.9,0a56,56,0,0,1,4.06-10.59.1.1,0,0,1,.18.07c-.89,3.39-2.38,6.6-3.33,10a6.49,6.49,0,0,1,1.83-.11c.11.06-.78,2.35-.82,2.73a.1.1,0,0,0,0,0,5.16,5.16,0,0,0,4-.25C374.52,115.64,374.59,115.73,374.5,115.8Z" style="fill:#263238"></path><path d="M378.91,109.38a3.71,3.71,0,0,0-.94-.31,3.76,3.76,0,0,0-1,0,2.87,2.87,0,0,0-1,.33,2.39,2.39,0,0,0-.8.75l-.37.55h.68a7.55,7.55,0,0,1,1.41.13,3,3,0,0,1,1.33.6,2.14,2.14,0,0,0-1.16-1.09,4.17,4.17,0,0,0-1.6-.34l.3.55a2.42,2.42,0,0,1,1.33-.89A7.57,7.57,0,0,1,378.91,109.38Z" style="fill:#263238"></path><path d="M376.77,111.85a5.76,5.76,0,0,1-1.39-.67c-.1-.08-.48-.41-.45-.49a3.11,3.11,0,0,1,.32-.7,2.13,2.13,0,0,0-.47.66,1,1,0,0,0,.46.71A3,3,0,0,0,376.77,111.85Z" style="fill:#263238"></path><path d="M385.56,109.66c-.54-3.25,2.06-8.13.74-9.77-2.85-3.53-10.6,1.11-15.29.38s-5.6-3.87-4.18-7.42,4.95-5.53,10.17-5.46a19.36,19.36,0,0,1,12.2,5.06s-.85-2-.32-2.53,2.46,1.63,3,2.49a6.9,6.9,0,0,1,.76,2.37,7.55,7.55,0,0,1,2.11.12,4.43,4.43,0,0,1,2.5,1.64c0,.29-1.65.23-2.82.1,0,0,1.7,3.22,1.25,5.67s-6.15,13.5-7.09,13.47C387.4,115.75,385.79,111,385.56,109.66Z" style="fill:#263238"></path><path d="M394,96.27s-.1,0-.07.06a7.89,7.89,0,0,1,1.9,3.87,9.83,9.83,0,0,1-.77,5.07c-1.24,3.11-3.29,5.78-5.14,8.53-.06.09.08.18.14.1a34.52,34.52,0,0,0,5.55-9.19C396.65,101.85,396.52,98.36,394,96.27Z" style="fill:#263238"></path><path d="M386.67,98.73a11.44,11.44,0,0,0-4.16-.4,16,16,0,0,0-3.81,1.18,15.89,15.89,0,0,1-8.77.95s-.05.05,0,.06a14,14,0,0,0,8.08-.41,35.69,35.69,0,0,1,4-1.35,14.82,14.82,0,0,1,4.65.21A.12.12,0,1,0,386.67,98.73Z" style="fill:#263238"></path><path d="M386.61,90.71a21.58,21.58,0,0,0-5.51-2.87,17.05,17.05,0,0,0-5.85-1.15c-3.45,0-6.89,1.64-8.24,5a7.45,7.45,0,0,0-.16,5.36A.09.09,0,0,0,367,97a7.7,7.7,0,0,1,3.17-8.65c3.14-2,7.05-1.5,10.41-.4a31.79,31.79,0,0,1,6,2.82S386.62,90.72,386.61,90.71Z" style="fill:#263238"></path><path d="M386.72,113.45s4-4.83,6.26-3.35-1.12,8.7-3.94,9.48a2.79,2.79,0,0,1-3.6-1.81Z" style="fill:#d3766a"></path><path d="M392,112.14s0,.07,0,.08c-2,.61-3.15,2.31-4,4.09a1.54,1.54,0,0,1,2.33-.22c.05,0,0,.11-.06.1a1.73,1.73,0,0,0-1.94.43,9.28,9.28,0,0,0-1,1.45c-.1.17-.4.05-.32-.14l0-.05C387.13,115.43,389.32,112.17,392,112.14Z" style="fill:#263238"></path></g><g id="freepik--speech-bubble--inject-3"><path d="M449.4,70.71a24.61,24.61,0,0,1-39.28,19.77l-12.06,3.07,5-11.22A24.62,24.62,0,1,1,449.4,70.71Z" style="fill:#fff"></path><path d="M449.4,70.71c.18,14.24-12.59,26-26.75,24.76a24.78,24.78,0,0,1-12.74-4.71l.3.06-12,3.16-.88.23.37-.84,5-11.24,0,.42c-5.67-10.08-2.92-23.71,6-30.94,16.19-13.34,40.65-1.86,40.7,19.1Zm0,0C449.48,55,434.09,43,418.87,47.13a24.31,24.31,0,0,0-15.36,35l.11.21-.1.21-5.06,11.21-.5-.6,12.07-3,.17,0a24.08,24.08,0,0,0,15.85,5c12.82-.31,23.44-11.58,23.35-24.35Z" style="fill:#263238"></path><polygon points="420.8 85.36 409.77 74.19 413.47 70.53 419.92 77.06 433.31 56.07 437.7 58.87 420.8 85.36" style="fill:#FFC727"></polygon></g></svg>
